<mxfile host="65bd71144e">
    <diagram id="kANASTAHNM-ZXNpa6W5Z" name="Page-1">
        <mxGraphModel dx="1294" dy="617" grid="1" gridSize="10" guides="1" tooltips="1" connect="1" arrows="1" fold="1" page="1" pageScale="1" pageWidth="1000000" pageHeight="1000000" math="0" shadow="0">
            <root>
                <mxCell id="0"/>
                <mxCell id="1" parent="0"/>
                <mxCell id="4" value="" style="edgeStyle=none;html=1;" edge="1" parent="1" source="2" target="3">
                    <mxGeometry relative="1" as="geometry"/>
                </mxCell>
                <mxCell id="2" value="开始" style="whiteSpace=wrap;html=1;" vertex="1" parent="1">
                    <mxGeometry x="420" y="100" width="120" height="60" as="geometry"/>
                </mxCell>
                <mxCell id="9" value="" style="edgeStyle=none;html=1;" edge="1" parent="1" source="3" target="7">
                    <mxGeometry relative="1" as="geometry"/>
                </mxCell>
                <mxCell id="3" value="1、创建一个空的集合，用来存储已经执行的bfpp&lt;br&gt;Set&amp;lt;String&amp;gt; processedBeans = new HashSet&amp;lt;&amp;gt;();" style="whiteSpace=wrap;html=1;" vertex="1" parent="1">
                    <mxGeometry x="320" y="200" width="320" height="70" as="geometry"/>
                </mxCell>
                <mxCell id="11" value="" style="edgeStyle=orthogonalEdgeStyle;html=1;entryX=0;entryY=0.5;entryDx=0;entryDy=0;" edge="1" parent="1" source="7" target="89">
                    <mxGeometry relative="1" as="geometry">
                        <mxPoint x="140" y="860" as="targetPoint"/>
                        <Array as="points">
                            <mxPoint x="140" y="350"/>
                            <mxPoint x="140" y="1248"/>
                        </Array>
                    </mxGeometry>
                </mxCell>
                <mxCell id="17" value="否" style="edgeLabel;html=1;align=center;verticalAlign=middle;resizable=0;points=[];" vertex="1" connectable="0" parent="11">
                    <mxGeometry x="-0.2394" y="1" relative="1" as="geometry">
                        <mxPoint as="offset"/>
                    </mxGeometry>
                </mxCell>
                <mxCell id="15" value="" style="edgeStyle=none;html=1;" edge="1" parent="1" source="7" target="14">
                    <mxGeometry relative="1" as="geometry"/>
                </mxCell>
                <mxCell id="16" value="是" style="edgeLabel;html=1;align=center;verticalAlign=middle;resizable=0;points=[];" vertex="1" connectable="0" parent="15">
                    <mxGeometry x="-0.3444" relative="1" as="geometry">
                        <mxPoint as="offset"/>
                    </mxGeometry>
                </mxCell>
                <mxCell id="26" value="" style="edgeStyle=none;html=1;" edge="1" parent="1" source="7" target="25">
                    <mxGeometry relative="1" as="geometry"/>
                </mxCell>
                <mxCell id="7" value="2、判断当前beanFactory是否是BeanDefinitionRegistry" style="rhombus;whiteSpace=wrap;html=1;" vertex="1" parent="1">
                    <mxGeometry x="345" y="310" width="270" height="80" as="geometry"/>
                </mxCell>
                <mxCell id="19" value="" style="edgeStyle=none;html=1;" edge="1" parent="1" source="14" target="18">
                    <mxGeometry relative="1" as="geometry"/>
                </mxCell>
                <mxCell id="28" value="" style="edgeStyle=none;html=1;" edge="1" parent="1" source="14" target="27">
                    <mxGeometry relative="1" as="geometry"/>
                </mxCell>
                <mxCell id="14" value="3、处理用户传进来的自定义的bfpp" style="whiteSpace=wrap;html=1;" vertex="1" parent="1">
                    <mxGeometry x="375" y="475" width="210" height="50" as="geometry"/>
                </mxCell>
                <mxCell id="21" value="是" style="edgeStyle=none;html=1;" edge="1" parent="1" source="18" target="20">
                    <mxGeometry relative="1" as="geometry"/>
                </mxCell>
                <mxCell id="23" value="" style="edgeStyle=none;html=1;" edge="1" parent="1" source="18" target="22">
                    <mxGeometry relative="1" as="geometry"/>
                </mxCell>
                <mxCell id="24" value="否" style="edgeLabel;html=1;align=center;verticalAlign=middle;resizable=0;points=[];" vertex="1" connectable="0" parent="23">
                    <mxGeometry x="-0.3207" y="2" relative="1" as="geometry">
                        <mxPoint as="offset"/>
                    </mxGeometry>
                </mxCell>
                <mxCell id="18" value="遍历每一个元素集合，获取或者判断是否是BeanDefinitionRegistryPostProcesor子类" style="rhombus;whiteSpace=wrap;html=1;" vertex="1" parent="1">
                    <mxGeometry x="670" y="450" width="330" height="90" as="geometry"/>
                </mxCell>
                <mxCell id="20" value="进行类型转换，执行bdrpp接口中的方法postProcessBeanDefinitionRegistry" style="whiteSpace=wrap;html=1;" vertex="1" parent="1">
                    <mxGeometry x="681.25" y="600" width="307.5" height="60" as="geometry"/>
                </mxCell>
                <mxCell id="22" value="放到regularPostProcessor" style="whiteSpace=wrap;html=1;" vertex="1" parent="1">
                    <mxGeometry x="1185" y="465" width="185" height="55" as="geometry"/>
                </mxCell>
                <mxCell id="25" value="创建两个空的集合对象，用来分类存储BFPP和BDRPP&lt;br&gt;&lt;p style=&quot;background-color: #2b2b2b ; color: #a9b7c6 ; font-family: &amp;#34;jetbrains mono extrabold&amp;#34; , monospace ; font-size: 12.0pt&quot;&gt;List&lt;span style=&quot;color: #9876aa ; font-style: italic&quot;&gt;&amp;lt;&lt;/span&gt;BeanFactoryPostProcessor&lt;span style=&quot;color: #9876aa ; font-style: italic&quot;&gt;&amp;gt; &lt;/span&gt;regularPostProcessors = &lt;span style=&quot;color: #cc7832&quot;&gt;new &lt;/span&gt;ArrayList&lt;span style=&quot;color: #9876aa ; font-style: italic&quot;&gt;&amp;lt;&amp;gt;()&lt;/span&gt;&lt;span style=&quot;color: #cc7832&quot;&gt;;&lt;/span&gt;&lt;/p&gt;&lt;pre style=&quot;background-color: #2b2b2b ; color: #a9b7c6 ; font-family: &amp;#34;jetbrains mono extrabold&amp;#34; , monospace ; font-size: 12.0pt&quot;&gt;List&lt;span style=&quot;color: #9876aa ; font-style: italic&quot;&gt;&amp;lt;&lt;/span&gt;BeanDefinitionRegistryPostProcessor&lt;span style=&quot;color: #9876aa ; font-style: italic&quot;&gt;&amp;gt; &lt;/span&gt;registryProcessors = &lt;span style=&quot;color: #cc7832&quot;&gt;new &lt;/span&gt;ArrayList&lt;span style=&quot;color: #9876aa ; font-style: italic&quot;&gt;&amp;lt;&amp;gt;()&lt;/span&gt;&lt;span style=&quot;color: #cc7832&quot;&gt;;&lt;/span&gt;&lt;/pre&gt;" style="whiteSpace=wrap;html=1;" vertex="1" parent="1">
                    <mxGeometry x="760" y="300" width="670" height="100" as="geometry"/>
                </mxCell>
                <mxCell id="30" value="" style="edgeStyle=orthogonalEdgeStyle;html=1;" edge="1" parent="1" source="27" target="29">
                    <mxGeometry relative="1" as="geometry"/>
                </mxCell>
                <mxCell id="27" value="4.创建存放BDRPP集合对象，用来存储当前正在执行处理过程中的BDRPP&lt;br&gt;currentRegistryProcessors" style="whiteSpace=wrap;html=1;" vertex="1" parent="1">
                    <mxGeometry x="375" y="560" width="210" height="60" as="geometry"/>
                </mxCell>
                <mxCell id="32" value="" style="edgeStyle=orthogonalEdgeStyle;html=1;" edge="1" parent="1" source="29" target="31">
                    <mxGeometry relative="1" as="geometry"/>
                </mxCell>
                <mxCell id="78" value="" style="edgeStyle=orthogonalEdgeStyle;html=1;" edge="1" parent="1" source="29" target="76">
                    <mxGeometry relative="1" as="geometry"/>
                </mxCell>
                <mxCell id="29" value="5、获取当前容器中所有实现了BDRPP接口的对象，判断是否实现了" style="whiteSpace=wrap;html=1;" vertex="1" parent="1">
                    <mxGeometry x="385" y="690" width="190" height="70" as="geometry"/>
                </mxCell>
                <mxCell id="34" value="" style="edgeStyle=orthogonalEdgeStyle;html=1;" edge="1" parent="1" source="31" target="33">
                    <mxGeometry relative="1" as="geometry"/>
                </mxCell>
                <mxCell id="35" value="是" style="edgeLabel;html=1;align=center;verticalAlign=middle;resizable=0;points=[];" vertex="1" connectable="0" parent="34">
                    <mxGeometry x="-0.2595" y="-1" relative="1" as="geometry">
                        <mxPoint as="offset"/>
                    </mxGeometry>
                </mxCell>
                <mxCell id="37" value="" style="edgeStyle=orthogonalEdgeStyle;html=1;" edge="1" parent="1" source="31" target="36">
                    <mxGeometry relative="1" as="geometry"/>
                </mxCell>
                <mxCell id="38" value="否" style="edgeLabel;html=1;align=center;verticalAlign=middle;resizable=0;points=[];" vertex="1" connectable="0" parent="37">
                    <mxGeometry x="0.226" y="-1" relative="1" as="geometry">
                        <mxPoint as="offset"/>
                    </mxGeometry>
                </mxCell>
                <mxCell id="31" value="判断是否实现了PriorityOrdered接口" style="rhombus;whiteSpace=wrap;html=1;" vertex="1" parent="1">
                    <mxGeometry x="710" y="685" width="240" height="80" as="geometry"/>
                </mxCell>
                <mxCell id="40" style="edgeStyle=orthogonalEdgeStyle;html=1;exitX=1;exitY=0.5;exitDx=0;exitDy=0;entryX=1;entryY=0.5;entryDx=0;entryDy=0;" edge="1" parent="1" source="33" target="36">
                    <mxGeometry relative="1" as="geometry"/>
                </mxCell>
                <mxCell id="33" value="添加具体的对象到&lt;br&gt;currentRegistryProcessors集合中，并且将当前BDRPP的名字添加到proceedBeans中" style="whiteSpace=wrap;html=1;" vertex="1" parent="1">
                    <mxGeometry x="1040" y="697.5" width="360" height="55" as="geometry"/>
                </mxCell>
                <mxCell id="42" value="" style="edgeStyle=orthogonalEdgeStyle;html=1;" edge="1" parent="1" source="36" target="41">
                    <mxGeometry relative="1" as="geometry"/>
                </mxCell>
                <mxCell id="36" value="1.将currentRegistryProcessors进行排序操作" style="whiteSpace=wrap;html=1;" vertex="1" parent="1">
                    <mxGeometry x="730" y="805" width="200" height="60" as="geometry"/>
                </mxCell>
                <mxCell id="73" value="" style="edgeStyle=orthogonalEdgeStyle;html=1;" edge="1" parent="1" source="41" target="72">
                    <mxGeometry relative="1" as="geometry"/>
                </mxCell>
                <mxCell id="41" value="2.将currentRegistryProcessors集合中的值合并到registryProcessors集合中" style="whiteSpace=wrap;html=1;" vertex="1" parent="1">
                    <mxGeometry x="730" y="900" width="200" height="60" as="geometry"/>
                </mxCell>
                <mxCell id="69" value="" style="whiteSpace=wrap;html=1;" vertex="1" parent="1">
                    <mxGeometry x="28270" y="17410" width="120" height="60" as="geometry"/>
                </mxCell>
                <mxCell id="70" value="" style="whiteSpace=wrap;html=1;" vertex="1" parent="1">
                    <mxGeometry x="32990" y="18050" width="120" height="60" as="geometry"/>
                </mxCell>
                <mxCell id="71" value="y&lt;br&gt;&lt;br&gt;&lt;br&gt;&lt;br&gt;&lt;br&gt;" style="whiteSpace=wrap;html=1;" vertex="1" parent="1">
                    <mxGeometry x="31480" y="19560" width="120" height="60" as="geometry"/>
                </mxCell>
                <mxCell id="75" value="" style="edgeStyle=orthogonalEdgeStyle;html=1;" edge="1" parent="1" source="72" target="74">
                    <mxGeometry relative="1" as="geometry"/>
                </mxCell>
                <mxCell id="72" value="3.执行bdrpp接口中的方法&lt;br&gt;invokeBeanDefinitionRegistryPostProcessors" style="whiteSpace=wrap;html=1;" vertex="1" parent="1">
                    <mxGeometry x="705" y="1000" width="250" height="60" as="geometry"/>
                </mxCell>
                <mxCell id="74" value="4.清空当前的currentRegistryProcessors" style="whiteSpace=wrap;html=1;" vertex="1" parent="1">
                    <mxGeometry x="715" y="1100" width="230" height="40" as="geometry"/>
                </mxCell>
                <mxCell id="80" value="" style="edgeStyle=orthogonalEdgeStyle;html=1;" edge="1" parent="1" source="76" target="79">
                    <mxGeometry relative="1" as="geometry"/>
                </mxCell>
                <mxCell id="82" value="" style="edgeStyle=orthogonalEdgeStyle;html=1;" edge="1" parent="1" source="76" target="81">
                    <mxGeometry relative="1" as="geometry"/>
                </mxCell>
                <mxCell id="76" value="6.获取当前容器中所有实现了BDRPP接口的对象，并且判断是否实现了Ordered接口" style="whiteSpace=wrap;html=1;" vertex="1" parent="1">
                    <mxGeometry x="380" y="795" width="200" height="60" as="geometry"/>
                </mxCell>
                <mxCell id="79" value="跟上述流程一样" style="whiteSpace=wrap;html=1;" vertex="1" parent="1">
                    <mxGeometry x="600" y="795" width="120" height="60" as="geometry"/>
                </mxCell>
                <mxCell id="84" value="" style="edgeStyle=orthogonalEdgeStyle;html=1;" edge="1" parent="1" source="81" target="83">
                    <mxGeometry relative="1" as="geometry"/>
                </mxCell>
                <mxCell id="86" value="" style="edgeStyle=orthogonalEdgeStyle;html=1;" edge="1" parent="1" source="81" target="85">
                    <mxGeometry relative="1" as="geometry"/>
                </mxCell>
                <mxCell id="81" value="7、获取当前容器中所有实现了BDRPP接口的对象，如果没有实现PriorityOrdered接口也没有实现Ordered接口" style="whiteSpace=wrap;html=1;" vertex="1" parent="1">
                    <mxGeometry x="330" y="900" width="220" height="90" as="geometry"/>
                </mxCell>
                <mxCell id="83" value="&lt;span&gt;跟上述流程一样&lt;/span&gt;" style="whiteSpace=wrap;html=1;" vertex="1" parent="1">
                    <mxGeometry x="600" y="915" width="120" height="60" as="geometry"/>
                </mxCell>
                <mxCell id="88" value="" style="edgeStyle=orthogonalEdgeStyle;html=1;" edge="1" parent="1" source="85" target="87">
                    <mxGeometry relative="1" as="geometry"/>
                </mxCell>
                <mxCell id="85" value="8、执行所有registryProcessors中对象的postProcessBeanFactory接口的方法" style="whiteSpace=wrap;html=1;" vertex="1" parent="1">
                    <mxGeometry x="302.5" y="1010" width="275" height="70" as="geometry"/>
                </mxCell>
                <mxCell id="90" value="" style="edgeStyle=orthogonalEdgeStyle;html=1;" edge="1" parent="1" source="87" target="89">
                    <mxGeometry relative="1" as="geometry"/>
                </mxCell>
                <mxCell id="87" value="&lt;span&gt;9、执行所有regularProcessors中对象的postProcessBeanFactory接口的方法&lt;/span&gt;" style="whiteSpace=wrap;html=1;" vertex="1" parent="1">
                    <mxGeometry x="305" y="1120" width="270" height="50" as="geometry"/>
                </mxCell>
                <mxCell id="93" value="" style="edgeStyle=orthogonalEdgeStyle;html=1;" edge="1" parent="1" source="89" target="92">
                    <mxGeometry relative="1" as="geometry"/>
                </mxCell>
                <mxCell id="89" value="优先处理实现了PriorityOrdered接口的BFPP对象，然后是Ordered接口的对象，最后是两者都没有实现的对象" style="whiteSpace=wrap;html=1;" vertex="1" parent="1">
                    <mxGeometry x="265" y="1210" width="350" height="75" as="geometry"/>
                </mxCell>
                <mxCell id="92" value="调用bfpp中的postProcessBeanFactory方法" style="whiteSpace=wrap;html=1;" vertex="1" parent="1">
                    <mxGeometry x="705" y="1211.25" width="230" height="72.5" as="geometry"/>
                </mxCell>
                <mxCell id="94" value="上面主要是bdrpp接口方法的执行，下面是bfpp接口方法的执行" style="text;html=1;align=center;verticalAlign=middle;resizable=0;points=[];autosize=1;strokeColor=none;fillColor=none;" vertex="1" parent="1">
                    <mxGeometry x="280" y="1180" width="350" height="20" as="geometry"/>
                </mxCell>
            </root>
        </mxGraphModel>
    </diagram>
</mxfile>